<svg id="Capa_1" enable-background="new 0 0 512 512" height="512" viewBox="0 0 512 512" width="512" xmlns="http://www.w3.org/2000/svg"><g><g><g><path d="m501.983 377.138h-491.966c-5.532 0-10.017-4.485-10.017-10.017v-234.526l5.009-14.368h501.983l5.008 14.368v234.526c0 5.532-4.485 10.017-10.017 10.017z" fill="#d3effb"/></g><g><path d="m506.991 118.227h-32.659v211.227c0 5.532-4.485 10.017-10.017 10.017h-464.315v27.65c0 5.532 4.485 10.017 10.017 10.017h491.966c5.532 0 10.017-4.485 10.017-10.017v-234.526z" fill="#b1e4f9"/></g><g><path d="m512 132.595h-512v-89.169c0-5.523 4.477-10 10-10h492c5.523 0 10 4.477 10 10z" fill="#5766cb"/></g><g><path d="m501.983 33.426h-27.65v99.169h37.667v-89.152c0-5.532-4.485-10.017-10.017-10.017z" fill="#3d4fc3"/></g><g><circle cx="48.02" cy="82.729" fill="#dd636e" r="14.65"/></g><g><circle cx="92.571" cy="82.729" fill="#ffd064" r="14.65"/></g><g><circle cx="137.123" cy="82.729" fill="#b1e4f9" r="14.65"/></g></g><g><path d="m458.836 86.655h-23.174c-19.621 0-36.854 13.923-40.976 33.107l-12.591 58.604c-.297 1.382-1.519 2.37-2.933 2.37h-276.124c-3.563 0-7.1.946-10.055 2.937-6.136 4.137-8.886 11.405-7.41 18.275l40.428 188.162c1.735 8.078 8.876 13.847 17.139 13.847h212.181c8.262 0 15.403-5.77 17.139-13.847l56.504-262.983c.674-3.136 3.491-5.413 6.699-5.413h23.633c9.57 0 17.348-7.668 17.527-17.195.184-9.823-8.161-17.864-17.987-17.864zm-230.55 280.407-1.948-23.661c-.096-1.165.824-2.164 1.993-2.164h39.843c1.169 0 2.089.999 1.993 2.164l-1.948 23.661c-.085 1.037-.952 1.836-1.993 1.836h-35.947c-1.041 0-1.908-.798-1.993-1.836zm-5.165-62.72-1.948-23.661c-.096-1.165.824-2.164 1.993-2.164h50.172c1.169 0 2.089.999 1.993 2.164l-1.948 23.661c-.085 1.037-.952 1.836-1.993 1.836h-46.275c-1.041 0-1.908-.799-1.994-1.836zm-82.761-25.826h43.614c1.041 0 1.908.798 1.993 1.836l1.948 23.661c.096 1.165-.824 2.164-1.993 2.164h-40.478c-.943 0-1.757-.658-1.955-1.58l-5.084-23.661c-.268-1.245.681-2.42 1.955-2.42zm77.597-36.895-1.948-23.661c-.096-1.165.824-2.164 1.993-2.164h60.5c1.169 0 2.089.999 1.993 2.164l-1.948 23.661c-.085 1.037-.952 1.836-1.993 1.836h-56.604c-1.041 0-1.908-.799-1.993-1.836zm94.574 36.895h45.571c1.274 0 2.223 1.175 1.955 2.42l-5.084 23.661c-.198.922-1.013 1.58-1.955 1.58h-42.435c-1.169 0-2.089-.999-1.993-2.164l1.948-23.661c.085-1.037.952-1.836 1.993-1.836zm53.963-35.059h-50.747c-1.169 0-2.089-.999-1.993-2.164l1.948-23.661c.085-1.037.952-1.836 1.993-1.836h53.883c1.274 0 2.223 1.175 1.955 2.42l-5.084 23.661c-.198.921-1.012 1.58-1.955 1.58zm-185.692-25.825 1.948 23.661c.096 1.165-.824 2.164-1.993 2.164h-48.79c-.943 0-1.757-.658-1.955-1.58l-5.084-23.661c-.268-1.245.682-2.42 1.955-2.42h51.926c1.041 0 1.908.798 1.993 1.836zm-26.966 123.605h35.302c1.041 0 1.908.798 1.993 1.836l1.948 23.661c.096 1.165-.824 2.164-1.993 2.164h-32.166c-.943 0-1.757-.658-1.955-1.58l-5.084-23.661c-.268-1.245.681-2.42 1.955-2.42zm149.589 25.497 1.948-23.661c.085-1.037.952-1.836 1.993-1.836h37.258c1.274 0 2.223 1.175 1.955 2.42l-5.084 23.661c-.198.922-1.013 1.58-1.955 1.58h-34.123c-1.168 0-2.088-.999-1.992-2.164z" fill="#dd636e"/></g><g><g><path d="m459.919 86.687c.005.233.029.461.024.696-.179 9.527-7.957 17.195-17.527 17.195h-13.476c-9.227 0-17.2 6.445-19.135 15.467l-54.226 252.928c-1.735 8.078-8.876 13.847-17.139 13.847h-212.179c-.328 0-.651-.024-.976-.042l.716 3.332c1.735 8.078 8.876 13.847 17.139 13.847h212.181c8.262 0 15.403-5.77 17.139-13.847l56.504-262.983c.674-3.136 3.491-5.413 6.699-5.413h23.633c9.682 0 17.53-7.848 17.53-17.53 0-9.47-7.517-17.166-16.907-17.497z" fill="#d82e3d"/></g></g><g><circle cx="182.929" cy="435.59" fill="#ecf4ff" r="42.984"/></g><g><circle cx="313.576" cy="435.59" fill="#ecf4ff" r="42.984"/></g><path d="m204.483 398.405c3.74 6.374 5.894 13.792 5.894 21.717 0 23.74-19.245 42.985-42.984 42.985-7.858 0-15.216-2.119-21.554-5.8 7.464 12.721 21.275 21.267 37.09 21.267 23.74 0 42.984-19.245 42.984-42.984 0-15.883-8.62-29.743-21.43-37.185z" fill="#ddeafb"/><path d="m335.129 398.405c3.74 6.374 5.894 13.792 5.894 21.717 0 23.74-19.245 42.985-42.984 42.985-7.858 0-15.216-2.119-21.554-5.8 7.464 12.721 21.275 21.267 37.09 21.267 23.74 0 42.984-19.245 42.984-42.984.001-15.883-8.619-29.743-21.43-37.185z" fill="#ddeafb"/><g><circle cx="182.929" cy="435.59" fill="#453d81" r="12.895"/></g><g><circle cx="313.576" cy="435.59" fill="#453d81" r="12.895"/></g></g></svg>